<svg width="181" height="186" viewBox="0 0 181 186" fill="none" xmlns="http://www.w3.org/2000/svg">
<circle cx="113.058" cy="75.8418" r="67.128" fill="#F58B00"/>
<path d="M100.053 10.1899C58.5598 10.1933 24.9352 43.8182 24.9319 85.3106C24.9352 126.807 58.5602 160.431 100.053 160.435C141.549 160.431 175.174 126.806 175.177 85.3106C175.174 43.8178 141.549 10.1933 100.053 10.1899ZM55.886 41.144C60.1049 36.9288 64.9251 33.3147 70.1957 30.4414C67.4068 34.7125 64.9739 39.5219 62.9427 44.7858H52.5754C53.642 43.5383 54.7255 42.3041 55.886 41.144ZM45.25 55.3382H59.6226C57.6373 62.9894 56.4665 71.3152 56.1029 80.0326H37.8608C38.6085 71.1371 41.1743 62.7729 45.25 55.3382ZM45.2566 115.286C41.1743 107.848 38.6085 99.4837 37.8604 90.5849H56.0292C56.3924 99.3234 57.6228 107.628 59.6152 115.286H45.2566ZM55.886 129.477C54.7259 128.317 53.6424 127.086 52.5796 125.838H62.9468C64.4183 129.655 66.0856 133.244 67.952 136.551C68.6758 137.823 69.4484 139.015 70.2276 140.201C64.9387 137.324 60.1153 133.706 55.886 129.477ZM94.7783 147.506C94.2541 147.464 93.7258 147.439 93.2016 147.38C91.4822 146.673 89.7726 145.74 88.0706 144.472C82.9643 140.679 78.1161 134.224 74.3625 125.838H94.7783V147.506ZM94.7783 115.286H70.5803C68.4025 107.834 67.0536 99.477 66.6549 90.5849H94.7783V115.286ZM94.7783 80.0326H66.5779C66.9766 71.1442 68.3748 62.7907 70.5451 55.3382H94.7783V80.0326ZM94.7783 44.7862H74.3902C75.2572 42.8498 76.1623 40.9871 77.141 39.2635C80.3709 33.5346 84.1563 29.0713 88.0706 26.1495C89.7731 24.8838 91.4822 23.9543 93.1983 23.248C93.7225 23.1888 94.2541 23.1644 94.7783 23.1188V44.7862ZM154.859 55.3382C158.935 62.7729 161.5 71.1371 162.248 80.0326H144.076C143.712 71.2978 142.482 62.9969 140.49 55.3382H154.859ZM144.222 41.144C145.383 42.3041 146.467 43.5383 147.533 44.7862H137.159C135.691 40.9693 134.02 37.3797 132.15 34.0695C131.43 32.8009 130.654 31.6089 129.881 30.4202C135.163 33.3002 139.99 36.918 144.222 41.144ZM105.327 23.1188C105.851 23.1644 106.382 23.1888 106.907 23.248C108.619 23.9543 110.333 24.8838 112.034 26.1495C117.145 29.9416 121.989 36.4046 125.746 44.7862H105.327V23.1188ZM105.327 55.3382H129.528C131.703 62.7903 133.052 71.1475 133.45 80.0326H105.327V55.3382ZM122.967 131.357C119.734 137.086 115.949 141.553 112.034 144.472C110.333 145.74 108.619 146.673 106.903 147.38C106.379 147.439 105.851 147.463 105.327 147.506V125.838H125.719C124.848 127.771 123.947 129.638 122.967 131.357ZM105.327 115.286V90.5849H133.527C133.129 99.477 131.73 107.834 129.56 115.286H105.327ZM144.222 129.477C140.004 133.699 135.184 137.31 129.913 140.179C132.698 135.912 135.131 131.102 137.162 125.838H147.529C146.467 127.086 145.383 128.317 144.222 129.477ZM154.851 115.286H140.483C142.471 107.638 143.639 99.3127 144.002 90.5849H162.248C161.5 99.4837 158.935 107.848 154.851 115.286Z" fill="black"/>
<path d="M147.893 163.423C132.95 172.573 116.456 176.922 100.143 176.922C69.3077 176.918 39.2206 161.368 21.9398 133.15C12.789 118.208 8.44082 101.713 8.44082 85.4006C8.44454 54.5616 23.9951 24.4849 52.2161 7.19707L47.8084 0C16.9976 18.8715 -0.00703631 51.7479 2.18414e-06 85.4006C-0.00372408 103.213 4.76382 121.266 14.7428 137.558C33.6105 168.362 66.4906 185.37 100.143 185.366C117.955 185.366 136.009 180.602 152.304 170.623L147.893 163.426V163.423Z" fill="black"/>
</svg>
